<?xml version="1.0" encoding="utf-8"?><!-- Uploaded to: SVG Repo, www.svgrepo.com, Generator: SVG Repo Mixer Tools -->
<svg fill="#000000" width="800px" height="800px" viewBox="0 0 24 24" id="trowel-2" data-name="Line Color" xmlns="http://www.w3.org/2000/svg" class="icon line-color"><line id="secondary" x1="15.57" y1="15.36" x2="12.32" y2="12.12" style="fill: none; stroke: rgb(44, 169, 188); stroke-linecap: round; stroke-linejoin: round; stroke-width: 2;"></line><path id="primary" d="M4.35,3.06l11,4a1,1,0,0,1,.36,1.64l-7,7a1,1,0,0,1-1.64-.36l-4-11A1,1,0,0,1,4.35,3.06ZM20.41,20.41h0a2,2,0,0,0,0-2.82l-2.82-2.83a1,1,0,0,0-1.42,0l-1.41,1.41a1,1,0,0,0,0,1.42l2.83,2.82A2,2,0,0,0,20.41,20.41Z" style="fill: none; stroke: rgb(0, 0, 0); stroke-linecap: round; stroke-linejoin: round; stroke-width: 2;"></path></svg>